<?xml version="1.0" encoding="UTF-8"?>
<svg width="250px" height="250px" viewBox="0 0 250 250" version="1.1" xmlns="http://www.w3.org/2000/svg" xmlns:xlink="http://www.w3.org/1999/xlink">
    <!-- Generator: Sketch 48.2 (47327) - http://www.bohemiancoding.com/sketch -->
    <title>analytics</title>
    <desc>Created with Sketch.</desc>
    <defs></defs>
    <g id="Page-1" stroke="none" stroke-width="1" fill="none" fill-rule="evenodd">
        <g id="analytics">
            <g id="socket-io-copy-2" fill="#010101">
                <path d="M93.1144574,3.93255514 C125.381457,-4.34244486 161.043457,0.479555144 189.500457,18.0425551 C225.340457,39.4755551 248.738457,80.0185551 249.333457,121.752555 C250.643457,163.902555 228.674457,205.696555 193.370457,228.617555 C154.077457,255.050555 99.7224574,256.063555 59.5954574,230.939555 C18.6954574,206.529555 -5.17854256,157.294555 0.954457436,110.023555 C5.89445744,60.0735551 44.4744574,16.0185551 93.1144574,3.93355514 L93.1144574,3.93255514 Z M88.1724574,24.3535551 C44.7124574,39.5945551 14.3494574,85.3175551 18.5764574,131.397555 C20.1834574,188.311555 74.9554574,236.357555 131.632457,230.701555 C191.227457,228.974555 240.046457,169.201555 230.222457,110.381555 C223.912457,45.0115551 149.136457,-0.0564448563 88.1724574,24.3535551 Z" id="Combined-Shape" fill-rule="nonzero"></path>
            </g>
            <g id="Group-2" transform="translate(63.000000, 63.000000)">
                <rect id="Rectangle" stroke="#010101" stroke-width="10" x="5" y="5" width="114" height="114"></rect>
                <g id="Group" transform="translate(23.000000, 31.000000)" fill="#010101">
                    <rect id="Rectangle-2-Copy-2" x="62" y="0" width="16" height="85"></rect>
                    <rect id="Rectangle-2-Copy-3" x="31" y="20" width="16" height="65"></rect>
                    <rect id="Rectangle-2-Copy-4" x="1.13686838e-13" y="42.5" width="16" height="42.5"></rect>
                </g>
            </g>
        </g>
    </g>
</svg>