<?xml version="1.0" encoding="UTF-8"?>
<svg width="250px" height="250px" viewBox="0 0 250 250" version="1.1" xmlns="http://www.w3.org/2000/svg" xmlns:xlink="http://www.w3.org/1999/xlink">
    <!-- Generator: Sketch 48.2 (47327) - http://www.bohemiancoding.com/sketch -->
    <title>stars</title>
    <desc>Created with Sketch.</desc>
    <defs></defs>
    <g id="Page-1" stroke="none" stroke-width="1" fill="none" fill-rule="evenodd">
        <g id="stars" fill="#010101">
            <g id="socket-io-copy" stroke-width="1">
                <path d="M93.447,4.382 C125.714,-3.893 161.376,0.929 189.833,18.492 C225.673,39.925 249.071,80.468 249.666,122.202 C250.976,164.352 229.007,206.146 193.703,229.067 C154.41,255.5 100.055,256.513 59.928,231.389 C19.028,206.979 -4.846,157.744 1.287,110.473 C6.227,60.523 44.807,16.468 93.447,4.383 L93.447,4.382 Z M88.505,24.803 C45.045,40.044 14.682,85.767 18.909,131.847 C20.516,188.761 75.288,236.807 131.965,231.151 C191.56,229.424 240.379,169.651 230.555,110.831 C224.245,45.461 149.469,0.393 88.505,24.803 Z" id="Combined-Shape" fill-rule="nonzero"></path>
            </g>
            <polygon id="Star" points="53 137 38.8931539 144.416408 41.5873218 128.708204 30.1746436 117.583592 45.946577 115.291796 53 101 60.053423 115.291796 75.8253564 117.583592 64.4126782 128.708204 67.1068461 144.416408"></polygon>
            <polygon id="Star-Copy" points="101 137 86.8931539 144.416408 89.5873218 128.708204 78.1746436 117.583592 93.946577 115.291796 101 101 108.053423 115.291796 123.825356 117.583592 112.412678 128.708204 115.106846 144.416408"></polygon>
            <polygon id="Star-Copy-3" points="149 137 134.893154 144.416408 137.587322 128.708204 126.174644 117.583592 141.946577 115.291796 149 101 156.053423 115.291796 171.825356 117.583592 160.412678 128.708204 163.106846 144.416408"></polygon>
            <polygon id="Star-Copy-2" points="195 137 180.893154 144.416408 183.587322 128.708204 172.174644 117.583592 187.946577 115.291796 195 101 202.053423 115.291796 217.825356 117.583592 206.412678 128.708204 209.106846 144.416408"></polygon>
        </g>
    </g>
</svg>